<svg width="256" height="256" viewBox="0 0 256 256" fill="none" xmlns="http://www.w3.org/2000/svg">
<g clip-path="url(#clip0_1_2)">
<path d="M196 0H60C26.8629 0 0 26.8629 0 60V196C0 229.137 26.8629 256 60 256H196C229.137 256 256 229.137 256 196V60C256 26.8629 229.137 0 196 0Z" fill="#F4F2ED"/>
<path d="M217.384 167.341C216.914 165.57 216.153 163.889 215.133 162.367C215.352 161.565 215.519 160.751 215.63 159.927C216.354 154.704 214.543 149.923 211.131 146.223C209.283 144.203 207.302 142.868 205.203 142.049C206.581 136.156 207.277 130.125 207.281 124.073C207.281 121.309 207.124 118.601 206.862 115.934C206.726 114.602 206.561 113.274 206.367 111.949C205.766 108.04 204.875 104.18 203.7 100.404C202.93 97.9222 202.039 95.4797 201.031 93.085C199.52 89.5386 197.755 86.1054 195.751 82.8123C194.437 80.6213 193.005 78.5026 191.463 76.4655C190.707 75.4369 189.919 74.4325 189.099 73.4538C186.672 70.5033 184.033 67.7325 181.205 65.1633C180.265 64.2996 179.3 63.4655 178.308 62.662C177.331 61.8477 176.333 61.0598 175.315 60.2988C173.266 58.7734 171.148 57.3423 168.968 56.0102C156.924 48.6951 142.8 44.5 127.704 44.5C83.75 44.5 48.1269 80.1249 48.1269 124.076C48.1251 130.204 48.8348 136.312 50.2419 142.276C48.3541 143.095 46.545 144.373 44.8669 146.222C41.4558 149.919 39.6441 154.683 40.3686 159.906C40.4787 160.736 40.6439 161.557 40.8641 162.365C39.8452 163.888 39.0854 165.57 38.6154 167.341C37.5667 171.327 37.9119 174.922 39.2447 178.072C37.7956 182.188 38.1575 186.572 40.0444 190.383C41.4165 193.167 43.3803 195.321 45.8012 197.245C48.6792 199.533 52.2817 201.477 56.6271 203.342C61.8115 205.553 68.1399 207.63 71.0179 208.393C78.4519 210.317 85.5801 211.537 92.8043 211.597C103.097 211.692 111.961 209.272 118.307 203.078C121.424 203.46 124.563 203.651 127.704 203.649C131.022 203.642 134.337 203.434 137.63 203.025C143.961 209.258 152.859 211.7 163.19 211.602C170.413 211.544 177.541 210.324 184.956 208.397C187.853 207.635 194.179 205.557 199.366 203.346C203.711 201.479 207.314 199.535 210.211 197.25C212.614 195.325 214.576 193.172 215.949 190.389C217.855 186.576 218.197 182.193 216.769 178.076C218.088 174.926 218.432 171.324 217.384 167.341ZM210.008 177.805C211.468 180.577 211.561 183.708 210.273 186.624C208.319 191.044 203.465 194.526 194.037 198.264C188.175 200.589 182.807 202.075 182.76 202.089C175.006 204.1 167.993 205.121 161.922 205.121C151.87 205.121 144.39 202.347 139.646 196.869C131.624 198.236 123.433 198.282 115.396 197.007C110.646 202.394 103.208 205.121 93.2404 205.121C87.1689 205.121 80.1571 204.1 72.4023 202.089C72.3551 202.075 66.9889 200.589 61.1246 198.264C51.6979 194.526 46.8421 191.047 44.8888 186.624C43.6006 183.708 43.6941 180.577 45.1545 177.805C45.2891 177.547 45.4341 177.297 45.5888 177.054C44.7136 175.739 44.1266 174.254 43.8662 172.696C43.606 171.139 43.6783 169.544 44.0786 168.016C44.6589 165.811 45.8572 163.977 47.4845 162.66C46.7005 161.372 46.1862 159.939 45.9725 158.446C45.5041 155.2 46.5817 151.959 49.0052 149.316C50.893 147.26 53.5612 146.128 56.5152 146.128H56.5939C54.3666 138.989 53.2373 131.552 53.2448 124.073C53.2448 83.2843 86.3125 50.214 127.108 50.214C167.902 50.214 200.97 83.2808 200.97 124.073C200.976 131.572 199.839 139.028 197.597 146.184C197.954 146.149 198.303 146.132 198.647 146.131C201.601 146.131 204.27 147.263 206.156 149.319C208.579 151.959 209.658 155.203 209.189 158.448C208.975 159.941 208.461 161.375 207.677 162.663C209.305 163.98 210.504 165.813 211.083 168.018C211.484 169.546 211.556 171.141 211.296 172.699C211.036 174.257 210.449 175.742 209.573 177.056C209.728 177.297 209.875 177.547 210.008 177.805Z" fill="white"/>
<path d="M209.573 177.056C210.449 175.742 211.036 174.257 211.297 172.699C211.556 171.141 211.484 169.546 211.083 168.018C210.503 165.813 209.304 163.98 207.677 162.663C208.461 161.375 208.975 159.941 209.189 158.448C209.658 155.203 208.58 151.962 206.156 149.319C204.27 147.263 201.601 146.131 198.647 146.131C198.303 146.131 197.954 146.149 197.597 146.184C199.836 139.028 200.971 131.573 200.964 124.075C200.964 83.2852 167.896 50.2159 127.105 50.2159C86.3133 50.2159 53.2421 83.2817 53.2421 124.075C53.2348 131.554 54.364 138.99 56.5913 146.13H56.5125C53.5585 146.13 50.8904 147.261 49.0034 149.317C46.5799 151.958 45.5014 155.202 45.9707 158.447C46.1845 159.939 46.6989 161.374 47.4826 162.662C45.8553 163.978 44.6563 165.812 44.076 168.017C43.6759 169.545 43.6038 171.14 43.8644 172.699C44.125 174.256 44.7123 175.742 45.5879 177.056C45.4323 177.299 45.289 177.55 45.1535 177.808C43.694 180.579 43.5997 183.711 44.8888 186.627C46.843 191.047 51.6969 194.529 61.1245 198.267C66.9862 200.591 72.3551 202.078 72.4023 202.091C80.1562 204.102 87.1689 205.124 93.2396 205.124C103.208 205.124 110.646 202.397 115.396 197.01C123.433 198.285 131.624 198.238 139.646 196.872C144.39 202.35 151.87 205.124 161.922 205.124C167.993 205.124 175.006 204.102 182.759 202.091C182.807 202.078 188.173 200.591 194.037 198.267C203.465 194.529 208.32 191.047 210.273 186.627C211.561 183.711 211.468 180.579 210.007 177.808C209.875 177.548 209.728 177.297 209.573 177.056ZM111.997 188.576C111.588 189.291 111.15 189.989 110.684 190.668C109.456 192.466 107.841 193.84 105.966 194.861C102.383 196.815 97.8471 197.498 93.2396 197.498C85.9602 197.498 78.4983 195.794 74.3163 194.71C74.1101 194.656 48.6792 187.473 51.8989 181.359C52.4408 180.33 53.3321 179.919 54.4552 179.919C58.9885 179.919 67.2432 186.67 70.7906 186.67C71.5833 186.67 72.1426 186.333 72.3708 185.509C73.8827 180.087 49.3914 177.808 51.454 169.956C51.8175 168.566 52.8052 168.002 54.1931 168.002C60.1868 168.001 73.639 178.542 76.4523 178.542C76.6682 178.542 76.8228 178.478 76.9067 178.345C76.9189 178.325 76.9312 178.306 76.9426 178.285C78.2632 176.104 77.5053 174.519 68.4589 168.978L67.5901 168.449C57.6347 162.424 50.6473 158.798 54.6213 154.472C55.0783 153.973 55.7268 153.752 56.5143 153.752C57.4477 153.752 58.5777 154.064 59.8223 154.588C65.0801 156.805 72.3673 162.852 75.4114 165.489C75.8902 165.905 76.366 166.326 76.8385 166.749C76.8385 166.749 80.6928 170.757 83.0228 170.757C83.5594 170.757 84.0147 170.545 84.3232 170.023C85.976 167.236 68.9736 154.352 68.0149 149.036C67.3646 145.434 68.4711 143.609 70.5162 143.609C71.4889 143.609 72.6758 144.024 73.9859 144.855C78.0498 147.434 85.8963 160.917 88.7691 166.163C89.7322 167.921 91.3762 168.663 92.8575 168.663C95.7967 168.663 98.0944 165.742 93.1267 162.029C85.6604 156.443 88.2806 147.311 91.8438 146.75C91.9959 146.725 92.1496 146.713 92.3026 146.713C95.5433 146.713 96.9722 152.297 96.9722 152.297C96.9722 152.297 101.162 162.817 108.359 170.009C114.89 176.537 115.802 181.894 111.997 188.576ZM135.27 189.808L134.897 189.853L134.26 189.925C133.926 189.96 133.59 189.994 133.253 190.024L132.926 190.054L132.626 190.079L132.201 190.113L131.732 190.147L131.263 190.178L131.159 190.185C131.037 190.192 130.915 190.2 130.791 190.206L130.634 190.215C130.489 190.223 130.344 190.23 130.197 190.236L129.689 190.258L129.229 190.273L128.921 190.282H128.765C128.669 190.282 128.573 190.287 128.477 190.288H128.325C128.229 190.288 128.134 190.288 128.038 190.293L127.646 190.298H127.1C126.671 190.298 126.242 190.293 125.816 190.285L125.47 190.277C125.371 190.277 125.272 190.272 125.175 190.269L124.808 190.258L124.353 190.241L123.942 190.223L123.836 190.218L123.446 190.198C123.337 190.192 123.229 190.187 123.121 190.179L122.868 190.164C122.551 190.144 122.234 190.122 121.916 190.098L121.584 190.071C121.444 190.06 121.305 190.047 121.166 190.035C121.002 190.021 120.839 190.005 120.675 189.989C120.402 189.964 120.128 189.936 119.855 189.906H119.842C123.836 180.996 121.816 172.674 113.745 164.61C108.451 159.323 104.93 151.517 104.199 149.803C102.72 144.73 98.8068 139.09 92.307 139.09C91.7573 139.09 91.2084 139.134 90.6657 139.219C87.8183 139.668 85.3292 141.306 83.5533 143.773C81.6341 141.386 79.769 139.489 78.0823 138.417C75.539 136.805 73.0009 135.987 70.5284 135.987C67.4424 135.987 64.6842 137.254 62.7614 139.552L62.7125 139.611C62.6758 139.46 62.6408 139.309 62.605 139.156L62.6006 139.136C62.2347 137.572 61.9275 135.994 61.6795 134.406C61.6795 134.396 61.6795 134.385 61.6742 134.375C61.655 134.255 61.6375 134.135 61.6191 134.015C61.5654 133.66 61.515 133.304 61.468 132.949C61.447 132.787 61.4243 132.625 61.4042 132.464L61.3447 131.979C61.3255 131.817 61.3098 131.67 61.2923 131.516L61.2871 131.478C61.2173 130.848 61.1561 130.219 61.1035 129.588L61.0843 129.346L61.0537 128.934C61.045 128.821 61.0362 128.707 61.0301 128.594C61.0301 128.567 61.0257 128.54 61.0248 128.515C61.0026 128.199 60.9837 127.881 60.968 127.564C60.9593 127.399 60.9506 127.235 60.9436 127.069L60.9261 126.635L60.9217 126.504L60.9077 126.105L60.899 125.765C60.899 125.629 60.892 125.494 60.8903 125.358C60.8876 125.223 60.8841 125.074 60.8833 124.931C60.8815 124.787 60.8833 124.646 60.8789 124.503C60.8754 124.36 60.8789 124.218 60.8789 124.075C60.8789 87.4969 90.5336 57.8421 127.116 57.8421C163.697 57.8421 193.35 87.496 193.35 124.075V124.931C193.35 125.073 193.346 125.217 193.343 125.358C193.343 125.476 193.338 125.592 193.335 125.712C193.335 125.817 193.33 125.923 193.327 126.024C193.327 126.158 193.319 126.292 193.315 126.425V126.436L193.296 126.9C193.29 127.035 193.285 127.172 193.278 127.307L193.274 127.403L193.25 127.837C193.198 128.766 193.128 129.693 193.039 130.619V130.631C193.024 130.783 193.01 130.935 192.993 131.087L192.954 131.446L192.876 132.149L192.831 132.505L192.776 132.923C192.756 133.075 192.736 133.228 192.713 133.379C192.691 133.55 192.665 133.719 192.64 133.889L192.58 134.29L192.508 134.745C192.483 134.896 192.457 135.046 192.429 135.196C192.4 135.348 192.378 135.498 192.351 135.648C192.299 135.949 192.244 136.25 192.186 136.549C192.098 136.998 192.008 137.445 191.915 137.893L191.819 138.336C191.788 138.483 191.754 138.632 191.72 138.78C189.856 136.968 187.387 135.981 184.665 135.981C182.194 135.981 179.654 136.798 177.111 138.411C175.424 139.482 173.56 141.381 171.64 143.767C169.862 141.3 167.373 139.662 164.527 139.213C163.984 139.128 163.435 139.084 162.886 139.084C156.384 139.084 152.473 144.724 150.993 149.797C150.259 151.511 146.737 159.317 141.439 164.612C133.373 172.651 131.339 180.935 135.27 189.808ZM203.65 171.971L203.624 172.049C203.558 172.225 203.481 172.396 203.394 172.562C203.329 172.685 203.258 172.803 203.181 172.919C203.035 173.136 202.875 173.344 202.701 173.54C202.661 173.586 202.622 173.631 202.577 173.676C202.514 173.743 202.45 173.809 202.385 173.874C201.208 175.04 199.415 176.063 197.387 177C197.157 177.104 196.924 177.208 196.689 177.313L196.455 177.417C196.298 177.486 196.142 177.554 195.978 177.622C195.821 177.69 195.659 177.758 195.496 177.824L195.008 178.025C193.868 178.495 192.699 178.942 191.56 179.384L191.072 179.573L190.59 179.762C190.27 179.887 189.953 180.012 189.642 180.137L189.178 180.324L188.722 180.51L188.498 180.605C188.349 180.667 188.203 180.729 188.057 180.791C184.703 182.23 182.29 183.694 182.797 185.51C182.811 185.562 182.827 185.611 182.844 185.659C182.89 185.793 182.952 185.92 183.03 186.04C183.075 186.111 183.128 186.178 183.186 186.239C183.782 186.859 184.867 186.761 186.235 186.269C186.427 186.198 186.618 186.125 186.808 186.048L186.927 185.999C187.24 185.866 187.571 185.717 187.909 185.557C187.994 185.516 188.08 185.478 188.165 185.433C189.838 184.615 191.734 183.514 193.614 182.512C194.367 182.105 195.13 181.72 195.902 181.354C197.684 180.515 199.358 179.921 200.704 179.921C201.336 179.921 201.894 180.05 202.358 180.348L202.436 180.399C202.728 180.605 202.973 180.869 203.156 181.174C203.191 181.233 203.226 181.295 203.26 181.359C203.926 182.622 203.369 183.929 202.066 185.211C200.815 186.443 198.87 187.65 196.658 188.767C196.494 188.85 196.33 188.933 196.163 189.014C189.582 192.246 180.964 194.68 180.844 194.71C178.547 195.306 175.263 196.087 171.562 196.672L171.015 196.757L170.925 196.77C170.511 196.833 170.096 196.892 169.68 196.946C169.258 197.003 168.831 197.054 168.402 197.103L168.323 197.111C166.768 197.29 165.206 197.409 163.641 197.466H163.618C163.052 197.486 162.486 197.497 161.92 197.497H161.267C160.403 197.485 159.542 197.446 158.681 197.38C158.661 197.38 158.639 197.38 158.619 197.374C158.31 197.351 158.003 197.322 157.695 197.288C157.376 197.254 157.058 197.215 156.741 197.172C156.532 197.144 156.324 197.113 156.116 197.079C155.904 197.045 155.693 197.01 155.482 196.973L155.195 196.919L155.173 196.915C154.869 196.857 154.568 196.793 154.267 196.723C154.092 196.684 153.919 196.645 153.746 196.598L153.642 196.572C153.557 196.551 153.474 196.528 153.389 196.506L153.343 196.493L153.073 196.415C152.976 196.388 152.878 196.358 152.78 196.329L152.746 196.319L152.491 196.242C152.395 196.212 152.299 196.181 152.204 196.149L151.97 196.071L151.797 196.011C151.631 195.952 151.466 195.892 151.303 195.829L151.147 195.768L151.019 195.717C150.771 195.618 150.524 195.514 150.28 195.404L150.119 195.326L150.091 195.314C150.034 195.286 149.977 195.259 149.919 195.236C149.807 195.182 149.695 195.126 149.584 195.069L149.55 195.052L149.389 194.967C149.103 194.818 148.823 194.659 148.549 194.49L148.399 194.398C148.323 194.351 148.248 194.303 148.175 194.254L147.979 194.125L147.768 193.98L147.643 193.89C147.51 193.795 147.38 193.698 147.252 193.597L147.048 193.441C146.967 193.375 146.887 193.309 146.807 193.241C146.74 193.186 146.674 193.129 146.609 193.071L146.603 193.067C146.533 193.004 146.464 192.942 146.395 192.879C146.326 192.817 146.258 192.754 146.192 192.69L146.184 192.682C146.114 192.616 146.046 192.548 145.979 192.479C145.911 192.411 145.842 192.343 145.777 192.273C145.711 192.204 145.644 192.133 145.579 192.061C145.514 191.989 145.455 191.923 145.394 191.853L145.374 191.829C145.314 191.761 145.256 191.692 145.198 191.621C145.073 191.472 144.952 191.319 144.835 191.162C144.717 191.005 144.601 190.844 144.488 190.681L144.381 190.52C144.238 190.31 144.098 190.099 143.962 189.884C143.861 189.729 143.762 189.573 143.666 189.415C143.604 189.316 143.545 189.217 143.485 189.119L143.461 189.079C143.404 188.982 143.348 188.888 143.294 188.793C143.262 188.741 143.233 188.69 143.205 188.636C143.176 188.582 143.142 188.527 143.112 188.472L143.062 188.386L143.031 188.33C142.973 188.225 142.915 188.119 142.859 188.012C142.833 187.965 142.808 187.918 142.781 187.873L142.703 187.721L142.624 187.572C142.428 187.179 142.241 186.78 142.067 186.376L142.005 186.229C141.964 186.13 141.927 186.032 141.887 185.935C141.867 185.888 141.848 185.841 141.832 185.794C141.738 185.552 141.651 185.307 141.57 185.061C141.541 184.973 141.513 184.886 141.487 184.799C141.424 184.6 141.367 184.4 141.317 184.198C141.255 183.963 141.2 183.726 141.153 183.488C141.144 183.44 141.134 183.392 141.126 183.345C141.081 183.112 141.044 182.877 141.015 182.641C141.008 182.595 141.003 182.548 140.998 182.502L140.983 182.36C140.964 182.175 140.949 181.989 140.94 181.803C140.94 181.756 140.936 181.708 140.934 181.663C140.93 181.57 140.928 181.478 140.927 181.385C140.878 177.651 142.768 174.06 146.808 170.022C154.005 162.831 158.195 152.31 158.195 152.31C158.195 152.31 158.308 151.868 158.542 151.233C158.574 151.145 158.608 151.054 158.647 150.959C158.783 150.603 158.937 150.253 159.107 149.912L159.141 149.847C159.287 149.557 159.446 149.274 159.617 148.998C159.657 148.934 159.696 148.872 159.74 148.808C159.869 148.618 160.004 148.433 160.146 148.254C160.224 148.157 160.309 148.06 160.394 147.967C160.428 147.93 160.461 147.894 160.497 147.859C160.914 147.428 161.39 147.076 161.929 146.889L161.998 146.867C162.043 146.852 162.088 146.838 162.135 146.825C162.188 146.811 162.241 146.798 162.296 146.787L162.322 146.782C162.435 146.759 162.551 146.744 162.667 146.736H162.677C162.737 146.736 162.798 146.73 162.86 146.73C162.938 146.73 163.01 146.73 163.087 146.738C163.165 146.745 163.243 146.754 163.322 146.766C163.97 146.869 164.587 147.256 165.119 147.852C165.32 148.079 165.502 148.324 165.661 148.582C165.766 148.75 165.865 148.927 165.958 149.114C165.996 149.192 166.032 149.264 166.067 149.341C166.158 149.538 166.24 149.739 166.311 149.945C166.482 150.425 166.61 150.92 166.695 151.424C166.769 151.865 166.812 152.311 166.826 152.757C166.833 152.996 166.833 153.238 166.826 153.482C166.779 154.616 166.547 155.736 166.138 156.796C166.102 156.893 166.061 156.991 166.021 157.089C165.941 157.286 165.853 157.48 165.757 157.67C165.687 157.814 165.612 157.959 165.532 158.103C165.479 158.199 165.424 158.296 165.369 158.392C165.229 158.631 165.077 158.869 164.913 159.106L164.814 159.247C164.428 159.786 163.998 160.291 163.528 160.758C163.065 161.222 162.568 161.651 162.043 162.042C161.517 162.432 161.023 162.864 160.567 163.333C159.253 164.711 158.947 165.928 159.243 166.85C159.29 166.995 159.352 167.136 159.427 167.269C159.515 167.421 159.62 167.561 159.739 167.688L159.786 167.736L159.833 167.783C159.88 167.829 159.93 167.873 159.983 167.917L160.035 167.959C160.162 168.057 160.297 168.144 160.438 168.221C160.479 168.243 160.515 168.265 160.562 168.286C160.714 168.36 160.87 168.424 161.031 168.476C161.076 168.49 161.12 168.504 161.166 168.518L161.222 168.532L161.301 168.553L161.368 168.57L161.442 168.586L161.514 168.601L161.583 168.612C161.634 168.621 161.686 168.629 161.739 168.636L161.789 168.643L161.88 168.652L161.936 168.658L162.027 168.664H162.081L162.178 168.67H162.48L162.567 168.664L162.666 168.658L162.788 168.647L162.901 168.634C162.927 168.634 162.954 168.627 162.98 168.622C163.33 168.571 163.672 168.478 164 168.345L164.139 168.287C164.217 168.253 164.295 168.217 164.367 168.178C164.521 168.102 164.67 168.014 164.814 167.919C165.014 167.788 165.202 167.641 165.379 167.479C165.421 167.442 165.462 167.401 165.502 167.363C165.522 167.344 165.542 167.325 165.561 167.304C165.599 167.265 165.639 167.227 165.677 167.184C165.957 166.876 166.199 166.537 166.398 166.173C168.108 163.062 169.901 159.998 171.774 156.984L172.031 156.572L172.29 156.16C172.42 155.952 172.551 155.746 172.681 155.542L172.812 155.337C173.247 154.655 173.69 153.978 174.14 153.306L174.406 152.908C174.941 152.115 175.474 151.344 176.003 150.612L176.266 150.249C176.841 149.456 177.44 148.68 178.061 147.923L178.308 147.628C178.349 147.579 178.386 147.53 178.431 147.483C178.512 147.387 178.593 147.293 178.673 147.202C178.713 147.156 178.751 147.11 178.794 147.065L179.028 146.801L179.145 146.673C179.263 146.546 179.378 146.424 179.492 146.308C179.571 146.229 179.643 146.152 179.718 146.078C180.161 145.626 180.65 145.219 181.177 144.867L181.299 144.788C181.416 144.71 181.538 144.636 181.662 144.57C183.728 143.397 185.438 143.31 186.423 144.295C187.019 144.891 187.35 145.88 187.331 147.256C187.331 147.316 187.331 147.377 187.327 147.44V147.507C187.327 147.57 187.322 147.633 187.317 147.697C187.317 147.776 187.308 147.853 187.3 147.932C187.292 148.01 187.288 148.069 187.28 148.139C187.28 148.158 187.276 148.178 187.273 148.199C187.268 148.26 187.26 148.322 187.251 148.384C187.251 148.402 187.251 148.421 187.244 148.441C187.234 148.524 187.222 148.606 187.208 148.688C187.199 148.767 187.185 148.84 187.171 148.917L187.149 149.047C187.126 149.171 187.097 149.294 187.061 149.414C186.993 149.641 186.911 149.862 186.814 150.077C186.679 150.372 186.529 150.66 186.365 150.939C186.274 151.095 186.18 151.248 186.083 151.399C185.984 151.555 185.879 151.714 185.77 151.874C185.494 152.269 185.208 152.656 184.91 153.034L184.773 153.206C184.287 153.812 183.786 154.405 183.268 154.985L183.105 155.168C182.885 155.414 182.661 155.661 182.432 155.91L182.26 156.097C182.145 156.222 182.026 156.347 181.91 156.472C181.796 156.597 181.676 156.724 181.555 156.851L181.196 157.229L180.832 157.61L180.465 157.991C180.218 158.247 179.971 158.502 179.722 158.757C176.178 162.392 172.444 166.014 171.18 168.273C171.096 168.42 171.02 168.572 170.951 168.726C170.771 169.137 170.696 169.489 170.748 169.773C170.764 169.866 170.797 169.955 170.845 170.037C170.916 170.161 171.002 170.274 171.103 170.376C171.149 170.421 171.198 170.463 171.249 170.501C171.51 170.687 171.824 170.782 172.144 170.773H172.243L172.345 170.765L172.448 170.754L172.532 170.742C172.544 170.74 172.556 170.738 172.567 170.735L172.645 170.72L172.665 170.716L172.752 170.697L172.782 170.689C172.813 170.681 172.843 170.674 172.873 170.665C172.904 170.656 172.946 170.645 172.983 170.633C173.136 170.586 173.287 170.531 173.434 170.468C173.512 170.437 173.588 170.403 173.663 170.366C173.703 170.348 173.742 170.33 173.779 170.311L173.896 170.253C174.176 170.108 174.448 169.95 174.714 169.78L174.83 169.702C174.869 169.677 174.909 169.652 174.946 169.624L175.063 169.546L175.125 169.503L175.292 169.385C175.449 169.278 175.595 169.167 175.743 169.054L175.756 169.044L175.991 168.862C176.311 168.608 176.616 168.353 176.892 168.113L177.075 167.952L177.092 167.936L177.188 167.852C177.414 167.649 177.615 167.46 177.782 167.304L177.851 167.237C177.911 167.18 177.966 167.127 178.016 167.082L178.114 166.985L178.149 166.951L178.158 166.941L178.26 166.839L178.325 166.771L178.333 166.765L178.364 166.737L178.402 166.702L178.414 166.691L178.447 166.661L178.625 166.505L178.725 166.416C178.778 166.369 178.829 166.322 178.881 166.274L179 166.168C179.022 166.151 179.043 166.132 179.065 166.112L179.189 166.003L179.373 165.841L179.471 165.757C179.851 165.426 180.313 165.027 180.845 164.577L181.062 164.392L181.422 164.091L181.79 163.784C182.27 163.385 182.788 162.961 183.335 162.521L183.694 162.233C184 161.989 184.314 161.741 184.632 161.491C184.76 161.39 184.89 161.29 185.023 161.19C185.348 160.938 185.675 160.687 186.005 160.439C186.755 159.873 187.528 159.306 188.311 158.754L188.647 158.519C188.882 158.358 189.116 158.195 189.35 158.037L189.563 157.894C189.981 157.609 190.406 157.332 190.834 157.062L191.047 156.929L191.257 156.798C191.469 156.666 191.679 156.538 191.887 156.413L192.096 156.288L192.514 156.045L192.924 155.81L193.007 155.765L193.331 155.586C193.467 155.513 193.601 155.442 193.736 155.373L193.936 155.27L194.131 155.172C194.199 155.14 194.266 155.106 194.333 155.073C194.772 154.856 195.219 154.657 195.673 154.475C195.797 154.423 195.919 154.376 196.041 154.335L196.399 154.209C196.506 154.173 196.611 154.139 196.712 154.108L196.747 154.098C196.801 154.08 196.855 154.065 196.908 154.051L196.924 154.046C197.036 154.014 197.147 153.986 197.256 153.96H197.264C197.573 153.885 197.888 153.832 198.205 153.8C198.351 153.785 198.497 153.777 198.644 153.778H198.718C198.815 153.778 198.91 153.784 199.003 153.794C199.046 153.794 199.089 153.802 199.131 153.808H199.148C199.19 153.813 199.232 153.819 199.274 153.829C199.315 153.837 199.357 153.844 199.397 153.853H199.411C199.452 153.862 199.488 153.872 199.531 153.885C199.753 153.947 199.965 154.043 200.159 154.169C200.254 154.231 200.343 154.301 200.425 154.378L200.449 154.401C200.465 154.415 200.479 154.43 200.493 154.445L200.536 154.491C200.888 154.859 201.178 155.281 201.396 155.741L201.429 155.82C201.504 155.994 201.562 156.175 201.604 156.36C201.728 156.924 201.68 157.513 201.466 158.051C201.385 158.268 201.286 158.476 201.17 158.676C200.898 159.134 200.576 159.559 200.209 159.945L200.132 160.028C200.015 160.15 199.895 160.272 199.768 160.395C199.712 160.45 199.654 160.504 199.595 160.559L199.416 160.724L199.322 160.807C199.097 161.008 198.865 161.203 198.63 161.392C198.488 161.507 198.344 161.62 198.199 161.731C197.687 162.123 197.165 162.5 196.634 162.865C196.313 163.085 195.99 163.301 195.664 163.514C194.861 164.041 194.049 164.555 193.229 165.055C191.509 166.112 189.603 167.243 187.571 168.473L187.045 168.792C186.469 169.143 185.925 169.479 185.413 169.799L185.155 169.96L184.668 170.273C184.344 170.48 184.022 170.689 183.699 170.898L183.44 171.07C183.313 171.152 183.187 171.236 183.061 171.319L182.938 171.398L182.56 171.652L182.36 171.79L182.126 171.952L181.908 172.103C181.544 172.361 181.205 172.607 180.893 172.84L180.776 172.929C180.592 173.068 180.41 173.21 180.231 173.354C179.961 173.572 179.715 173.78 179.494 173.98L179.385 174.079C179.323 174.135 179.262 174.192 179.203 174.248C179.163 174.287 179.126 174.327 179.084 174.364L179.028 174.42C178.903 174.546 178.78 174.675 178.662 174.807L178.605 174.873C178.476 175.022 178.364 175.164 178.267 175.303L178.223 175.365C178.146 175.477 178.075 175.592 178.011 175.711C177.995 175.741 177.98 175.771 177.965 175.8L177.922 175.889L177.893 175.954L177.875 175.998L177.86 176.037L177.84 176.09C177.786 176.238 177.748 176.392 177.726 176.548L177.719 176.602L177.714 176.652V176.928C177.714 176.95 177.714 176.973 177.72 176.998L177.725 177.04C177.725 177.062 177.73 177.084 177.733 177.109C177.737 177.131 177.743 177.172 177.75 177.205V177.209C177.756 177.24 177.762 177.269 177.77 177.3C177.778 177.331 177.786 177.366 177.795 177.397C177.812 177.459 177.833 177.52 177.855 177.582C177.869 177.618 177.882 177.654 177.897 177.69C177.897 177.697 177.902 177.705 177.906 177.712L177.937 177.783L177.981 177.88C178.028 177.98 178.08 178.078 178.135 178.173L178.193 178.273L178.253 178.372C178.263 178.389 178.275 178.405 178.288 178.42L178.308 178.44L178.329 178.46L178.352 178.477C178.385 178.501 178.421 178.519 178.459 178.532C178.479 178.539 178.5 178.545 178.521 178.55C179.025 178.663 180.062 178.247 181.439 177.519C181.517 177.477 181.603 177.434 181.686 177.388L182.105 177.159L182.31 177.046C182.456 176.968 182.604 176.88 182.756 176.793L183.033 176.637C184.854 175.589 187.028 174.243 189.276 172.928C189.487 172.805 189.698 172.682 189.91 172.561L190.334 172.289C190.827 172.006 191.323 171.728 191.82 171.452C192.447 171.108 193.078 170.772 193.715 170.447L194.131 170.237C194.407 170.1 194.681 169.967 194.951 169.838C195.473 169.59 196.002 169.354 196.537 169.131L196.83 169.012L196.865 168.998C198.416 168.384 199.822 168.005 200.96 168.005C201.206 168.002 201.452 168.023 201.694 168.065H201.702C201.78 168.079 201.851 168.095 201.923 168.112H201.936C202.123 168.159 202.303 168.226 202.475 168.313C202.715 168.437 202.931 168.602 203.114 168.802C203.197 168.894 203.272 168.995 203.337 169.101C203.46 169.289 203.556 169.493 203.625 169.706C203.653 169.789 203.677 169.87 203.703 169.957C203.887 170.619 203.869 171.32 203.65 171.971Z" fill="#FF9D00"/>
<path fill-rule="evenodd" clip-rule="evenodd" d="M193.34 124.503V124.074C193.34 87.495 163.697 57.842 127.115 57.842C90.5338 57.842 60.879 87.4968 60.879 124.074V124.218C60.8772 124.313 60.8764 124.408 60.879 124.503C60.8833 124.646 60.8848 124.788 60.8834 124.931L60.8878 125.245L60.8904 125.358C60.8904 125.411 60.8922 125.462 60.8939 125.515C60.8966 125.598 60.8982 125.682 60.8982 125.765L60.9078 126.105L60.9218 126.504L60.9262 126.635L60.9437 127.048V127.069C60.9507 127.23 60.9595 127.391 60.9673 127.552L60.9681 127.564C60.9769 127.728 60.9857 127.894 60.9962 128.059C61.0049 128.211 61.0136 128.363 61.0249 128.515L61.0268 128.542C61.0344 128.672 61.0431 128.803 61.0529 128.934L61.0555 128.969L61.0844 129.346L61.0871 129.371C61.0923 129.444 61.0975 129.517 61.1045 129.588C61.1567 130.218 61.2177 130.848 61.2872 131.477L61.2915 131.516L61.3448 131.978L61.4043 132.464L61.4479 132.793L61.468 132.948C61.5146 133.304 61.5651 133.66 61.6192 134.015L61.6228 134.038L61.6743 134.374C61.9238 135.973 62.2329 137.561 62.6007 139.137L62.6052 139.156L62.6331 139.274L62.7126 139.611L62.7615 139.552C64.6843 137.254 67.4425 135.987 70.5285 135.987C73.0019 135.987 75.5391 136.805 78.0823 138.417C79.7691 139.489 81.6342 141.386 83.5534 143.773C85.3293 141.306 87.8184 139.667 90.6658 139.219C91.2087 139.134 91.7575 139.091 92.3071 139.09C98.806 139.09 102.72 144.73 104.199 149.803C104.93 151.517 108.451 159.323 113.761 164.604C121.833 172.668 123.853 180.989 119.858 189.899H119.872C120.144 189.93 120.417 189.958 120.693 189.983C120.856 189.999 121.019 190.015 121.183 190.029L121.241 190.034L121.602 190.064L121.934 190.091C122.25 190.115 122.567 190.138 122.886 190.158L123.138 190.173L123.338 190.185L123.462 190.192L123.853 190.212L123.96 190.216L124.37 190.235L124.826 190.252L125.192 190.263L125.253 190.265C125.331 190.268 125.409 190.271 125.487 190.271L125.57 190.273C126.086 190.286 126.601 190.292 127.116 190.291H127.664L128.054 190.286C128.15 190.282 128.246 190.282 128.343 190.282H128.495L128.627 190.279C128.678 190.277 128.73 190.275 128.782 190.275H128.939L129.245 190.267L129.707 190.251L130.215 190.229C130.362 190.223 130.507 190.216 130.652 190.209L130.808 190.199L131.041 190.187L131.177 190.179L131.28 190.172L131.749 190.141L132.218 190.107L132.643 190.073L132.942 190.048L133.271 190.018C133.82 189.969 134.367 189.911 134.914 189.846L135.287 189.801C131.355 180.929 133.391 172.644 141.429 164.612C146.728 159.317 150.249 151.511 150.983 149.796C152.463 144.724 156.374 139.084 162.875 139.084C163.425 139.084 163.975 139.128 164.517 139.213C167.362 139.661 169.851 141.3 171.63 143.767C173.55 141.381 175.414 139.482 177.102 138.41C179.644 136.798 182.184 135.98 184.654 135.98C187.378 135.98 189.846 136.968 191.71 138.78C191.744 138.632 191.777 138.484 191.81 138.336L191.905 137.894C191.939 137.732 191.973 137.57 192.005 137.408C192.063 137.123 192.121 136.837 192.176 136.548C192.234 136.25 192.289 135.949 192.341 135.648L192.368 135.486C192.385 135.39 192.4 135.293 192.419 135.196C192.449 135.046 192.473 134.896 192.497 134.744L192.507 134.686L192.569 134.29L192.63 133.889V133.885C192.675 133.589 192.717 133.293 192.756 132.997L192.766 132.923L192.821 132.505L192.865 132.149L192.944 131.446L192.975 131.164L192.983 131.087C192.999 130.935 193.015 130.783 193.029 130.631V130.619C193.04 130.498 193.052 130.377 193.063 130.255C193.125 129.566 193.177 128.874 193.219 128.179C193.227 128.066 193.233 127.951 193.24 127.837V127.831L193.263 127.402L193.268 127.306C193.282 127.016 193.295 126.726 193.304 126.436V126.425L193.309 126.312C193.313 126.216 193.316 126.12 193.316 126.024L193.318 125.986C193.322 125.896 193.325 125.803 193.325 125.711L193.328 125.633C193.33 125.541 193.333 125.45 193.333 125.358L193.335 125.28C193.337 125.164 193.34 125.047 193.34 124.931V124.503ZM110.687 190.668C115.932 182.977 115.56 177.203 108.364 170.01C101.166 162.817 96.9767 152.297 96.9767 152.297C96.9767 152.297 95.4132 146.188 91.8474 146.749C88.2816 147.31 85.6658 156.44 93.1321 162.029C100.598 167.618 91.6464 171.408 88.7728 166.163C85.8992 160.917 78.0534 147.435 73.9859 144.856C69.9185 142.277 67.058 143.722 68.0167 149.038C68.493 151.676 72.9224 156.18 77.0607 160.387C81.2592 164.655 85.1579 168.62 84.3242 170.023C82.6697 172.808 76.8431 166.749 76.8431 166.749C76.8431 166.749 58.5979 150.146 54.6266 154.473C50.9646 158.461 56.6114 161.851 65.3127 167.076C66.0521 167.52 66.8142 167.978 67.5947 168.45C77.5501 174.477 78.3243 176.067 76.9111 178.347C76.3894 179.19 73.0569 177.189 68.958 174.729C61.9706 170.533 52.7573 165.002 51.4559 169.953C50.3302 174.238 57.1087 176.863 63.2562 179.245C68.3777 181.229 73.0623 183.043 72.3727 185.506C71.6587 188.06 67.7878 185.93 63.5569 183.601C58.8069 180.987 53.6024 178.124 51.899 181.355C48.6802 187.464 74.1066 194.656 74.3164 194.71C82.5317 196.84 103.395 201.355 110.687 190.668ZM144.479 190.668C139.233 182.977 139.606 177.203 146.803 170.01C154 162.817 158.189 152.297 158.189 152.297C158.189 152.297 159.752 146.188 163.318 146.749C166.884 147.31 169.5 156.44 162.034 162.029C154.568 167.618 163.519 171.408 166.393 166.163C169.267 160.917 177.108 147.435 181.175 144.856C185.243 142.277 188.105 143.722 187.145 149.038C186.67 151.676 182.24 156.18 178.101 160.388C173.903 164.656 170.004 168.62 170.837 170.023C172.491 172.808 178.322 166.746 178.322 166.746C178.322 166.746 196.567 150.143 200.54 154.47C204.201 158.457 198.554 161.848 189.852 167.074C189.091 167.531 188.33 167.989 187.571 168.448C177.615 174.475 176.841 176.064 178.253 178.344C178.776 179.187 182.109 177.186 186.207 174.725C193.195 170.53 202.408 164.998 203.71 169.95C204.836 174.235 198.057 176.86 191.909 179.242C186.788 181.226 182.103 183.04 182.792 185.503C183.505 188.056 187.375 185.926 191.605 183.598C196.355 180.984 201.561 178.119 203.263 181.353C206.483 187.465 181.052 194.65 180.847 194.703C172.631 196.84 151.768 201.355 144.479 190.668Z" fill="#FFD21E"/>
<path fill-rule="evenodd" clip-rule="evenodd" d="M148.625 106.047C149.658 106.412 150.426 107.524 151.157 108.582C152.144 110.012 153.064 111.343 154.474 110.593C156.138 109.708 157.503 108.35 158.394 106.689C159.287 105.029 159.667 103.142 159.487 101.265C159.352 99.8625 158.908 98.5069 158.186 97.2965C157.464 96.0859 156.483 95.0505 155.313 94.265C154.143 93.4795 152.813 92.9633 151.42 92.7537C150.026 92.544 148.603 92.6462 147.254 93.0526C145.904 93.459 144.662 94.1594 143.616 95.1034C142.57 96.0475 141.746 97.2117 141.204 98.5124C140.662 99.813 140.415 101.218 140.48 102.625C140.547 104.033 140.923 105.408 141.585 106.653C142.239 107.882 143.69 107.302 145.221 106.689C146.421 106.209 147.671 105.71 148.625 106.047ZM103.725 106.047C102.692 106.412 101.923 107.525 101.193 108.582C100.205 110.013 99.2848 111.343 97.8751 110.593C95.7824 109.485 94.1775 107.637 93.3731 105.41C92.5688 103.182 92.6227 100.735 93.5243 98.5457C94.4259 96.3559 96.1106 94.5804 98.25 93.5652C100.39 92.55 102.83 92.368 105.097 93.0544C106.901 93.5978 108.504 94.664 109.703 96.1181C110.903 97.5723 111.643 99.3492 111.832 101.224C112.021 103.099 111.65 104.988 110.765 106.653C110.111 107.882 108.66 107.302 107.129 106.69C105.928 106.209 104.679 105.71 103.725 106.047ZM141.679 146.906C148.795 141.299 151.409 132.145 151.409 126.507C151.409 122.049 148.411 123.452 143.61 125.829L143.339 125.963C138.933 128.145 133.066 131.051 126.627 131.051C120.187 131.051 114.321 128.145 109.915 125.962C104.959 123.507 101.85 121.967 101.85 126.507C101.85 132.325 104.631 141.876 112.264 147.425C113.272 145.381 114.69 143.567 116.431 142.095C118.171 140.623 120.197 139.526 122.38 138.872C123.143 138.645 123.927 139.957 124.731 141.3C125.506 142.596 126.298 143.92 127.104 143.92C127.963 143.92 128.807 142.615 129.631 141.34C130.492 140.008 131.332 138.71 132.144 138.969C136.229 140.281 139.647 143.126 141.679 146.906Z" fill="#32343D"/>
<path d="M141.677 146.905C137.97 149.826 133.044 151.784 126.628 151.784C120.6 151.784 115.886 150.056 112.264 147.424C113.272 145.38 114.69 143.565 116.431 142.094C118.171 140.622 120.197 139.525 122.38 138.872C123.877 138.425 125.463 143.92 127.104 143.92C128.861 143.92 130.554 138.461 132.144 138.969C136.228 140.281 139.646 143.126 141.677 146.905Z" fill="#FF323D"/>
<path fill-rule="evenodd" clip-rule="evenodd" d="M86.7066 113.976C85.8599 114.543 84.8864 114.891 83.8725 114.991C82.8586 115.092 81.8357 114.94 80.8947 114.549C80.1425 114.239 79.4589 113.782 78.8835 113.206C78.308 112.631 77.8519 111.948 77.5412 111.195C77.1515 110.254 76.9998 109.232 77.1001 108.218C77.2002 107.204 77.549 106.23 78.1155 105.384C78.7961 104.364 79.7636 103.57 80.8957 103.101C82.0279 102.632 83.2736 102.51 84.4754 102.749C85.6773 102.988 86.7811 103.579 87.6473 104.445C88.5135 105.312 89.1032 106.417 89.3416 107.618C89.5805 108.82 89.4576 110.065 88.9888 111.197C88.5199 112.329 87.7251 113.296 86.7066 113.976ZM175.339 113.976C174.492 114.543 173.518 114.891 172.504 114.991C171.49 115.092 170.467 114.94 169.526 114.549C168.773 114.238 168.09 113.782 167.515 113.206C166.94 112.631 166.484 111.948 166.173 111.195C165.784 110.254 165.632 109.232 165.732 108.218C165.833 107.204 166.181 106.23 166.747 105.384C167.255 104.621 167.927 103.983 168.713 103.511C169.499 103.04 170.379 102.75 171.291 102.66C172.203 102.57 173.123 102.684 173.985 102.993C174.848 103.302 175.631 103.798 176.278 104.447C177.145 105.313 177.735 106.417 177.974 107.618C178.213 108.82 178.09 110.065 177.621 111.197C177.151 112.329 176.358 113.296 175.339 113.976Z" fill="#FFAD03"/>
</g>
<defs>
<clipPath id="clip0_1_2">
<rect width="256" height="256" fill="white"/>
</clipPath>
</defs>
</svg>
