<svg width="256" height="256" viewBox="0 0 256 256" fill="none" xmlns="http://www.w3.org/2000/svg">
<g clip-path="url(#clip0_2_2)">
<path d="M196 0H60C26.8629 0 0 26.8629 0 60V196C0 229.137 26.8629 256 60 256H196C229.137 256 256 229.137 256 196V60C256 26.8629 229.137 0 196 0Z" fill="#20BEFF"/>
<path d="M179.058 216.939C178.88 217.644 178.174 217.997 176.944 217.997H153.418C152.003 217.997 150.776 217.38 149.718 216.144L110.862 166.72L100.026 177.027V215.356C100.026 217.12 99.143 218 97.3821 218H79.1444C77.3805 218 76.5 217.12 76.5 215.356V40.6414C76.5 38.8834 77.3805 38 79.1444 38H97.3821C99.143 38 100.026 38.8834 100.026 40.6414V148.218L146.546 101.171C147.779 99.9408 149.012 99.3212 150.246 99.3212H174.566C175.622 99.3212 176.324 99.7629 176.68 100.64C177.033 101.699 176.944 102.49 176.416 103.021L127.25 150.593L178.527 214.294C179.23 215 179.408 215.88 179.058 216.939Z" fill="white"/>
</g>
<defs>
<clipPath id="clip0_2_2">
<rect width="256" height="256" fill="white"/>
</clipPath>
</defs>
</svg>
